<svg width="957" height="825" viewBox="0 0 957 825" fill="none" xmlns="http://www.w3.org/2000/svg">
<path d="M627.904 368.837L485.604 15.6114C482.913 8.93437 478.068 4.8918 472.867 5.0017C467.667 5.10573 462.894 9.3373 460.324 16.1198L325.722 371.451C309.726 413.677 302.901 449.916 302.901 492.625C302.901 637.3 381.45 755 478.001 755C574.552 755 653.101 637.299 653.101 492.625C653.1 441.793 643.027 406.376 627.904 368.837V368.837ZM478 711.043C397.608 711.043 332.205 613.061 332.205 492.625C332.205 457.599 337.708 428.784 351.2 393.167L473.453 70.4402L602.823 391.571C615.77 423.709 623.795 451.824 623.795 492.625C623.795 613.062 558.392 711.043 478 711.043Z" fill="black"/>
<path d="M463.379 327.691L163.531 92.9387C157.862 88.5012 151.645 87.4228 147.195 90.1187C142.744 92.8086 140.726 98.8601 141.892 106.019L202.989 481.045C210.249 525.612 222.458 560.409 243.813 597.396C316.15 722.688 443.026 785.345 526.641 737.069C610.256 688.794 619.431 547.587 547.094 422.296C521.677 378.275 495.245 352.639 463.379 327.691V327.691ZM504.662 699.002C435.04 739.198 329.408 687.044 269.19 582.744C251.677 552.41 242.036 524.704 235.912 487.113L180.422 146.497L453.025 359.92C480.307 381.278 501.314 401.614 521.715 436.949C581.933 541.251 574.283 658.806 504.662 699.002Z" fill="black"/>
<path d="M752.542 477.593L805.919 100.541C806.928 93.4137 804.753 87.4902 800.194 84.9846C795.639 82.4749 789.389 83.7527 783.772 88.3415L489.538 328.766C454.572 357.338 430.542 385.309 409.188 422.296C336.85 547.588 346.025 688.794 429.641 737.069C513.256 785.345 640.132 722.687 712.469 597.396C737.884 553.374 746.869 517.665 752.542 477.593V477.593ZM451.618 699.001C381.997 658.805 374.347 541.248 434.565 436.948C452.078 406.614 471.252 384.411 500.745 360.312L767.982 141.949L719.454 484.741C714.598 519.048 707.49 547.408 687.09 582.743C626.871 687.045 521.24 739.197 451.618 699.001Z" fill="black"/>
</svg>
